<svg width="24" height="24" viewBox="0 0 24 24" fill="none" xmlns="http://www.w3.org/2000/svg">
<g id="icon/arrow_left">
<path id="Vector" d="M15.5784 5.93436C15.5783 6.19955 15.4729 6.45386 15.2854 6.64136L10.6994 11.2274C10.5169 11.4175 10.415 11.6708 10.415 11.9344C10.415 12.1979 10.5169 12.4512 10.6994 12.6414L15.2854 17.2274C15.4675 17.416 15.5683 17.6686 15.566 17.9308C15.5638 18.193 15.4586 18.4438 15.2732 18.6292C15.0878 18.8146 14.837 18.9198 14.5748 18.922C14.3126 18.9243 14.06 18.8235 13.8714 18.6414L9.28536 14.0554C8.73989 13.4837 8.43555 12.724 8.43555 11.9339C8.43555 11.1437 8.73988 10.384 9.28536 9.81236L13.8714 5.22736C14.0112 5.08755 14.1894 4.99234 14.3833 4.95377C14.5773 4.91521 14.7783 4.93501 14.961 5.01068C15.1437 5.08635 15.2999 5.21449 15.4098 5.3789C15.5196 5.54331 15.5783 5.73661 15.5784 5.93436Z" fill="#797981"/>
</g>
</svg>
