<svg width="24" height="24" viewBox="0 0 24 24" fill="none" xmlns="http://www.w3.org/2000/svg">
<path fill-rule="evenodd" clip-rule="evenodd" d="M3.46934 12.5298C3.32889 12.3892 3.25 12.1986 3.25 11.9998C3.25 11.8011 3.32889 11.6105 3.46934 11.4698L9.46934 5.46985C9.538 5.39616 9.6208 5.33706 9.7128 5.29607C9.8048 5.25507 9.90412 5.23303 10.0048 5.23126C10.1055 5.22948 10.2055 5.248 10.2989 5.28572C10.3923 5.32344 10.4772 5.37959 10.5484 5.45081C10.6196 5.52203 10.6757 5.60686 10.7135 5.70025C10.7512 5.79364 10.7697 5.89367 10.7679 5.99437C10.7662 6.09507 10.7441 6.19439 10.7031 6.28639C10.6621 6.37838 10.603 6.46119 10.5293 6.52985L5.80934 11.2498H19.9993C20.1983 11.2498 20.389 11.3289 20.5297 11.4695C20.6703 11.6102 20.7493 11.8009 20.7493 11.9998C20.7493 12.1988 20.6703 12.3895 20.5297 12.5302C20.389 12.6708 20.1983 12.7498 19.9993 12.7498H5.80934L10.5293 17.4698C10.603 17.5385 10.6621 17.6213 10.7031 17.7133C10.7441 17.8053 10.7662 17.9046 10.7679 18.0053C10.7697 18.106 10.7512 18.2061 10.7135 18.2994C10.6757 18.3928 10.6196 18.4777 10.5484 18.5489C10.4772 18.6201 10.3923 18.6762 10.2989 18.714C10.2055 18.7517 10.1055 18.7702 10.0048 18.7684C9.90412 18.7667 9.8048 18.7446 9.7128 18.7036C9.6208 18.6626 9.538 18.6035 9.46934 18.5298L3.46934 12.5298Z" fill="#1A1B22"/>
</svg>
