<svg width="24" height="24" viewBox="0 0 24 24" fill="none" xmlns="http://www.w3.org/2000/svg">
<g id="icon/book">
<path id="Vector" d="M12 8V20M12 8C12.6786 5.36834 15.2414 4.02459 20.8214 4C20.9106 3.99967 20.999 4.01669 21.0815 4.05008C21.164 4.08346 21.2389 4.13256 21.302 4.19453C21.3651 4.2565 21.415 4.33013 21.449 4.41116C21.483 4.49219 21.5003 4.57903 21.5 4.66667V16.6667C21.5 16.8435 21.4285 17.013 21.3012 17.1381C21.174 17.2631 21.0014 17.3333 20.8214 17.3333C15.3929 17.3333 13.2956 18.4088 12 20C10.712 18.4167 8.60714 17.3333 3.17858 17.3333C2.75956 17.3333 2.5 16.9979 2.5 16.5863V4.66667C2.49967 4.57903 2.51699 4.49219 2.55097 4.41116C2.58495 4.33013 2.63493 4.2565 2.698 4.19453C2.76108 4.13256 2.83602 4.08346 2.9185 4.05008C3.00098 4.01669 3.08937 3.99967 3.17858 4C8.75855 4.02459 11.3214 5.36834 12 8Z" stroke="currentColor" stroke-width="1.5" stroke-linecap="round" stroke-linejoin="round"/>
</g>
</svg>
