<svg width="24" height="24" viewBox="0 0 24 24" fill="none" xmlns="http://www.w3.org/2000/svg">
<g id="icon/delete">
<path id="Vector" d="M19.15 5.33333H16.515C16.3177 4.39284 15.7957 3.54779 15.0371 2.9406C14.2784 2.33341 13.3294 2.00121 12.35 2L10.65 2C9.67063 2.00121 8.72162 2.33341 7.96294 2.9406C7.20425 3.54779 6.68228 4.39284 6.485 5.33333H3.85C3.62457 5.33333 3.40837 5.42113 3.24896 5.57741C3.08955 5.73369 3 5.94565 3 6.16667C3 6.38768 3.08955 6.59964 3.24896 6.75592C3.40837 6.9122 3.62457 7 3.85 7H4.7V17.8333C4.70135 18.938 5.14955 19.997 5.94629 20.7782C6.74302 21.5593 7.82324 21.9987 8.95 22H14.05C15.1768 21.9987 16.257 21.5593 17.0537 20.7782C17.8505 19.997 18.2987 18.938 18.3 17.8333V7H19.15C19.3754 7 19.5916 6.9122 19.751 6.75592C19.9104 6.59964 20 6.38768 20 6.16667C20 5.94565 19.9104 5.73369 19.751 5.57741C19.5916 5.42113 19.3754 5.33333 19.15 5.33333ZM10.65 3.66667H12.35C12.8772 3.6673 13.3914 3.82781 13.8219 4.1262C14.2524 4.42459 14.5782 4.84624 14.7547 5.33333H8.24535C8.4218 4.84624 8.74762 4.42459 9.17813 4.1262C9.60864 3.82781 10.1228 3.6673 10.65 3.66667ZM16.6 17.8333C16.6 18.4964 16.3313 19.1323 15.8531 19.6011C15.3749 20.0699 14.7263 20.3333 14.05 20.3333H8.95C8.2737 20.3333 7.6251 20.0699 7.14688 19.6011C6.66866 19.1323 6.4 18.4964 6.4 17.8333V7H16.6V17.8333Z" fill="#1A1B22"/>
<path id="Vector_2" d="M10 17C10.2652 17 10.5196 16.921 10.7071 16.7803C10.8946 16.6397 11 16.4489 11 16.25V11.75C11 11.5511 10.8946 11.3603 10.7071 11.2197C10.5196 11.079 10.2652 11 10 11C9.73478 11 9.48043 11.079 9.29289 11.2197C9.10536 11.3603 9 11.5511 9 11.75V16.25C9 16.4489 9.10536 16.6397 9.29289 16.7803C9.48043 16.921 9.73478 17 10 17Z" fill="#1A1B22"/>
<path id="Vector_3" d="M13 17C13.2652 17 13.5196 16.921 13.7071 16.7803C13.8946 16.6397 14 16.4489 14 16.25V11.75C14 11.5511 13.8946 11.3603 13.7071 11.2197C13.5196 11.079 13.2652 11 13 11C12.7348 11 12.4804 11.079 12.2929 11.2197C12.1054 11.3603 12 11.5511 12 11.75V16.25C12 16.4489 12.1054 16.6397 12.2929 16.7803C12.4804 16.921 12.7348 17 13 17Z" fill="#1A1B22"/>
</g>
</svg>
