<svg width="24" height="24" viewBox="0 0 24 24" fill="none" xmlns="http://www.w3.org/2000/svg">
<g id="icon/exit" clip-path="url(#clip0_149_11635)">
<path id="Vector" fill-rule="evenodd" clip-rule="evenodd" d="M4.79922 1.59961C4.37487 1.59961 3.96791 1.76818 3.66785 2.06824C3.36779 2.3683 3.19922 2.77526 3.19922 3.19961V20.7996C3.19922 21.224 3.36779 21.6309 3.66785 21.931C3.96791 22.231 4.37487 22.3996 4.79922 22.3996H16.7992C17.0114 22.3996 17.2149 22.3153 17.3649 22.1653C17.5149 22.0153 17.5992 21.8118 17.5992 21.5996C17.5992 21.3874 17.5149 21.184 17.3649 21.0339C17.2149 20.8839 17.0114 20.7996 16.7992 20.7996H4.79922V3.19961H16.7992C17.0114 3.19961 17.2149 3.11532 17.3649 2.96529C17.5149 2.81527 17.5992 2.61178 17.5992 2.39961C17.5992 2.18744 17.5149 1.98395 17.3649 1.83392C17.2149 1.68389 17.0114 1.59961 16.7992 1.59961H4.79922ZM20.1656 7.83321C20.0154 7.68299 19.8117 7.5986 19.5992 7.5986C19.3868 7.5986 19.183 7.68299 19.0328 7.83321C18.8826 7.98343 18.7982 8.18717 18.7982 8.39961C18.7982 8.61205 18.8826 8.81579 19.0328 8.96601L21.268 11.1996H10.3992C10.187 11.1996 9.98356 11.2839 9.83353 11.4339C9.6835 11.584 9.59922 11.7874 9.59922 11.9996C9.59922 12.2118 9.6835 12.4153 9.83353 12.5653C9.98356 12.7153 10.187 12.7996 10.3992 12.7996H21.268L19.0328 15.0332C18.8826 15.1834 18.7982 15.3872 18.7982 15.5996C18.7982 15.812 18.8826 16.0158 19.0328 16.166C19.183 16.3162 19.3868 16.4006 19.5992 16.4006C19.8117 16.4006 20.0154 16.3162 20.1656 16.166L23.7656 12.566C23.8401 12.4917 23.8992 12.4034 23.9396 12.3062C23.9799 12.209 24.0006 12.1048 24.0006 11.9996C24.0006 11.8944 23.9799 11.7902 23.9396 11.693C23.8992 11.5958 23.8401 11.5075 23.7656 11.4332L20.1656 7.83321Z" fill="#1A1B22"/>
</g>
<defs>
<clipPath id="clip0_149_11635">
<rect width="24" height="24" fill="white"/>
</clipPath>
</defs>
</svg>
