<svg width="24" height="24" viewBox="0 0 24 24" fill="none" xmlns="http://www.w3.org/2000/svg">
<g id="icon/happy">
<path id="Vector" d="M5.75062 1.09277L5.83031 2.11793L5.0475 2.7859L6.05062 3.02824L6.44437 3.97746L6.98344 3.10184L8.00531 3.0198L7.33969 2.23652L7.57875 1.23715L6.62719 1.62855L5.75062 1.09277ZM21.7491 1.49965C21.5501 1.49965 21.3594 1.57867 21.2187 1.71932C21.0781 1.85997 20.9991 2.05074 20.9991 2.24965C20.9991 2.44856 21.0781 2.63933 21.2187 2.77998C21.3594 2.92063 21.5501 2.99965 21.7491 2.99965C21.948 2.99965 22.1387 2.92063 22.2794 2.77998C22.42 2.63933 22.4991 2.44856 22.4991 2.24965C22.4991 2.05074 22.42 1.85997 22.2794 1.71932C22.1387 1.57867 21.948 1.49965 21.7491 1.49965ZM11.2397 1.99184C11.0408 1.99184 10.85 2.07085 10.7094 2.21151C10.5687 2.35216 10.4897 2.54292 10.4897 2.74184C10.4897 2.94075 10.5687 3.13151 10.7094 3.27217C10.85 3.41282 11.0408 3.49184 11.2397 3.49184C11.4386 3.49184 11.6294 3.41282 11.77 3.27217C11.9107 3.13151 11.9897 2.94075 11.9897 2.74184C11.9897 2.54292 11.9107 2.35216 11.77 2.21151C11.6294 2.07085 11.4386 1.99184 11.2397 1.99184ZM19.86 2.31246C19.4287 2.39402 19.0303 2.64902 18.6459 2.98184C18.2897 3.28793 17.9569 3.66902 17.6756 4.08105C16.7944 4.22215 15.9131 4.58121 15.3225 5.07152C14.5678 5.69027 13.8975 6.74965 13.5319 7.84184C13.185 7.98715 12.8569 8.16059 12.5897 8.34809C11.8631 8.85902 11.4881 9.83871 11.2116 10.6918C10.935 11.5496 10.7991 12.2996 10.7991 12.2996L11.6334 12.4496C11.6334 12.4496 11.76 11.7465 12.0131 10.9543C12.2709 10.1621 12.7069 9.29965 13.0772 9.04184C13.1381 8.99965 13.2178 8.95277 13.2881 8.91059C13.26 9.17777 13.26 9.44496 13.3022 9.69809C13.3866 10.2325 13.6772 10.7434 14.1928 11.02C14.5584 11.2168 14.9709 11.17 15.3178 11.0293C15.6647 10.884 15.9741 10.645 16.2412 10.3637C16.5084 10.0825 16.7288 9.74965 16.86 9.39809C16.9913 9.04652 17.0381 8.64809 16.8694 8.27777H16.8647C16.6819 7.88402 16.3303 7.6309 15.9553 7.52309C15.5803 7.41527 15.1772 7.41996 14.7741 7.4809C14.7037 7.49027 14.6381 7.51371 14.5678 7.52777C14.9147 6.78715 15.4116 6.08871 15.8569 5.7184C16.1475 5.47934 16.635 5.24965 17.1553 5.0809C17.0897 5.25902 17.0381 5.43715 17.0147 5.61996C16.9397 6.11215 17.0475 6.64652 17.4412 7.01215C17.7272 7.27465 18.1116 7.31684 18.4491 7.26059C18.7819 7.20434 19.1053 7.05434 19.3959 6.86215C19.6866 6.66527 19.9444 6.42152 20.1272 6.13559C20.31 5.84965 20.4319 5.48402 20.3147 5.1184V5.11371C20.16 4.64168 19.7756 4.31731 19.3491 4.16356C19.1662 4.09793 18.9741 4.0609 18.7772 4.03887C18.9131 3.88605 19.0537 3.74309 19.1944 3.62074C19.5131 3.34699 19.8366 3.17543 20.0194 3.14121L19.86 2.31246ZM8.19281 3.95543L7.48031 4.40355L9.0975 6.9934L6.45375 7.12934L7.69594 9.83871L8.46469 9.48246L7.73812 7.90746L10.5787 7.76215L8.19281 3.95543ZM18.3366 4.86059C18.6225 4.8559 18.8756 4.88871 19.0631 4.95902C19.3162 5.04809 19.4428 5.16059 19.5084 5.37152C19.5272 5.42309 19.5178 5.52621 19.4194 5.6809C19.3162 5.84027 19.1334 6.0184 18.9272 6.15902C18.7162 6.29965 18.4819 6.39809 18.3084 6.42621C18.1303 6.45902 18.0506 6.42621 18.0131 6.3934C17.8491 6.2434 17.8022 6.0559 17.8491 5.74184C17.8866 5.48871 18.0037 5.18402 18.1772 4.86996C18.2334 4.86996 18.285 4.86059 18.3366 4.86059ZM4.45172 5.76527C4.25281 5.76527 4.06204 5.84429 3.92139 5.98494C3.78074 6.1256 3.70172 6.31636 3.70172 6.51527C3.70172 6.71419 3.78074 6.90495 3.92139 7.0456C4.06204 7.18626 4.25281 7.26527 4.45172 7.26527C4.55025 7.26534 4.64783 7.24598 4.73888 7.20832C4.82992 7.17065 4.91266 7.11542 4.98235 7.04577C5.05205 6.97612 5.10733 6.89342 5.14505 6.80239C5.18277 6.71137 5.20219 6.6138 5.20219 6.51527C5.20219 6.41674 5.18277 6.31918 5.14505 6.22815C5.10733 6.13713 5.05205 6.05443 4.98235 5.98478C4.91266 5.91513 4.82992 5.85989 4.73888 5.82223C4.64783 5.78457 4.55025 5.76521 4.45172 5.76527ZM21.1444 7.50902L20.4694 8.28715L19.4475 8.20277L19.9819 9.08402L19.5834 10.0309L20.5866 9.79652L21.3647 10.4668L21.4537 9.44027L22.3303 8.9059L21.3834 8.50746L21.1444 7.50902ZM15.3553 8.28246C15.4913 8.28715 15.6178 8.3059 15.7162 8.33402C15.9178 8.39027 16.0256 8.47465 16.1006 8.63402C16.1428 8.72309 16.1475 8.88715 16.0678 9.10277C15.9881 9.32309 15.8241 9.57621 15.6272 9.78715C15.4303 9.99809 15.1912 10.1668 14.9944 10.2465C14.7975 10.3262 14.6756 10.3215 14.5959 10.2793H14.5912C14.3194 10.1293 14.1881 9.91371 14.1366 9.56684C14.0897 9.27152 14.1225 8.89652 14.2209 8.4934C14.4506 8.41371 14.6803 8.34809 14.9006 8.31527C15.0647 8.29184 15.2147 8.28246 15.3553 8.28246ZM5.86781 10.7153C5.53031 10.7059 5.31937 10.7856 5.18812 10.9168C5.05687 11.0481 4.97719 11.259 4.98656 11.5965C4.99594 11.9387 5.10844 12.3887 5.32406 12.8903C5.75531 13.8981 6.60375 15.1121 7.74281 16.2559C8.88187 17.395 10.1006 18.2387 11.1084 18.67C11.6053 18.8856 12.0553 18.9981 12.3975 19.0075C12.7397 19.0215 12.9459 18.9372 13.0772 18.8059C13.2084 18.6747 13.2928 18.4684 13.2787 18.1262C13.2694 17.784 13.1569 17.334 12.9412 16.8325C12.51 15.8293 11.6662 14.6106 10.5272 13.4715C9.38812 12.3278 8.16937 11.484 7.16156 11.0528C6.66 10.8371 6.21 10.7246 5.86781 10.7153ZM16.7428 12.1825L15.1959 14.7137L13.8319 13.4059L13.2506 14.0153L15.3647 16.045L16.9491 13.4575L18.7631 14.9715L22.9491 13.1809L22.6209 12.4028L18.9037 13.9965L16.7428 12.1825ZM4.37859 12.7778L3.55172 15.4918C5.49281 17.7934 7.75687 19.0872 10.2131 19.9309L11.2256 19.6215C11.0803 19.57 10.9256 19.509 10.7709 19.4434C9.62719 18.9559 8.3475 18.0559 7.1475 16.8512C5.94281 15.6465 5.04281 14.3668 4.55344 13.2231C4.48734 13.0731 4.42922 12.9231 4.37859 12.7778ZM3.26203 16.4434L2.60531 18.5996C3.95953 19.8653 5.37094 20.4371 6.85219 20.9528L8.88656 20.334C6.86156 19.509 4.94906 18.3043 3.26203 16.4434ZM17.2491 16.4996C17.0501 16.4996 16.8594 16.5787 16.7187 16.7193C16.5781 16.86 16.4991 17.0507 16.4991 17.2496C16.4991 17.4486 16.5781 17.6393 16.7187 17.78C16.8594 17.9206 17.0501 17.9996 17.2491 17.9996C17.448 17.9996 17.6387 17.9206 17.7794 17.78C17.92 17.6393 17.9991 17.4486 17.9991 17.2496C17.9991 17.0507 17.92 16.86 17.7794 16.7193C17.6387 16.5787 17.448 16.4996 17.2491 16.4996ZM2.33391 19.495L1.38281 22.6168L5.52094 21.3559C4.45359 20.9293 3.375 20.3856 2.33391 19.495Z" fill="#1D6BF3"/>
</g>
</svg>
