<svg width="24" height="24" viewBox="0 0 24 24" fill="none" xmlns="http://www.w3.org/2000/svg">
<g id="icon/settings" clip-path="url(#clip0_149_11646)">
<path id="Vector" d="M12.0671 7.33301C9.46706 7.33301 7.40039 9.39967 7.40039 11.9997C7.40039 14.5997 9.46706 16.6663 12.0671 16.6663C14.6671 16.6663 16.7337 14.5997 16.7337 11.9997C16.7337 9.39967 14.6671 7.33301 12.0671 7.33301ZM12.0671 15.333C10.2004 15.333 8.73372 13.8663 8.73372 11.9997C8.73372 10.133 10.2004 8.66634 12.0671 8.66634C13.9337 8.66634 15.4004 10.133 15.4004 11.9997C15.4004 13.8663 13.9337 15.333 12.0671 15.333Z" fill="#1A1B22"/>
<path id="Vector_2" d="M21.8673 9.79967L20.0007 9.19967L19.6007 8.19967L20.534 6.46634C20.734 6.06634 20.6673 5.53301 20.334 5.19967L18.734 3.59967C18.4007 3.26634 17.8673 3.19967 17.4673 3.39967L15.734 4.33301L14.734 3.93301L14.134 2.06634C14.0007 1.66634 13.6007 1.33301 13.134 1.33301H10.8673C10.4007 1.33301 10.0007 1.66634 9.93398 2.13301L9.33398 3.99967C8.93398 4.06634 8.60065 4.19967 8.26732 4.39967L6.53398 3.46634C6.13398 3.26634 5.60065 3.33301 5.26732 3.66634L3.66732 5.26634C3.33398 5.59967 3.26732 6.13301 3.46732 6.53301L4.33398 8.19967C4.20065 8.53301 4.06732 8.93301 3.93398 9.26634L2.06732 9.86634C1.66732 9.99967 1.33398 10.3997 1.33398 10.8663V13.133C1.33398 13.5997 1.66732 13.9997 2.13398 14.133L4.00065 14.733L4.40065 15.733L3.46732 17.4663C3.26732 17.8663 3.33398 18.3997 3.66732 18.733L5.26732 20.333C5.60065 20.6663 6.13398 20.733 6.53398 20.533L8.26732 19.5997L9.26732 19.9997L9.86732 21.933C10.0007 22.333 10.4007 22.6663 10.8673 22.6663H13.134C13.6007 22.6663 14.0007 22.333 14.134 21.933L14.734 19.9997L15.734 19.5997L17.4673 20.533C17.8673 20.733 18.4007 20.6663 18.734 20.333L20.334 18.733C20.6673 18.3997 20.734 17.8663 20.534 17.4663L19.6007 15.733L20.0007 14.733L21.934 14.133C22.334 13.9997 22.6673 13.5997 22.6673 13.133V10.8663C22.6673 10.3997 22.334 9.93301 21.8673 9.79967ZM21.334 12.933L18.934 13.6663L18.8673 13.9997L18.2673 15.3997L18.0673 15.733L19.2673 17.933L17.934 19.2663L15.734 18.0663L15.4007 18.2663C14.934 18.533 14.4673 18.733 14.0007 18.8663L13.6673 18.933L12.934 21.333H11.0673L10.334 18.933L10.0007 18.8663L8.60065 18.2663L8.26732 18.0663L6.06732 19.2663L4.73398 17.933L5.93398 15.733L5.73398 15.3997C5.46732 14.933 5.26732 14.4663 5.13398 13.9997L5.06732 13.6663L2.66732 12.933V11.0663L4.93398 10.3997L5.06732 10.0663C5.20065 9.53301 5.40065 9.06634 5.66732 8.59967L5.86732 8.26634L4.73398 6.06634L6.06732 4.73301L8.20065 5.93301L8.53398 5.73301C9.00065 5.46634 9.46732 5.26634 10.0007 5.13301L10.334 4.99967L11.0673 2.66634H12.934L13.6673 4.99967L14.0007 5.13301C14.4673 5.26634 14.934 5.46634 15.4007 5.73301L15.734 5.93301L17.934 4.73301L19.2673 6.06634L18.0673 8.26634L18.2673 8.59967C18.534 9.06634 18.734 9.53301 18.8673 9.99967L18.934 10.333L21.334 11.0663V12.933Z" fill="#1A1B22"/>
</g>
<defs>
<clipPath id="clip0_149_11646">
<rect width="24" height="24" fill="white"/>
</clipPath>
</defs>
</svg>
