<svg width="24" height="24" viewBox="0 0 24 24" fill="currentColor" xmlns="http://www.w3.org/2000/svg">
<g id="icon/tracker">
<path id="Vector" d="M15.4375 4.28571C15.4375 3.94472 15.5758 3.6177 15.8219 3.37658C16.0681 3.13546 16.4019 3 16.75 3H19.375C19.7231 3 20.0569 3.13546 20.3031 3.37658C20.5492 3.6177 20.6875 3.94472 20.6875 4.28571V19.7143H21.3438C21.5178 19.7143 21.6847 19.782 21.8078 19.9026C21.9309 20.0231 22 20.1866 22 20.3571C22 20.5276 21.9309 20.6912 21.8078 20.8117C21.6847 20.9323 21.5178 21 21.3438 21H1.65625C1.4822 21 1.31528 20.9323 1.19221 20.8117C1.06914 20.6912 1 20.5276 1 20.3571C1 20.1866 1.06914 20.0231 1.19221 19.9026C1.31528 19.782 1.4822 19.7143 1.65625 19.7143H2.3125V15.8571C2.3125 15.5162 2.45078 15.1891 2.69692 14.948C2.94306 14.7069 3.2769 14.5714 3.625 14.5714H6.25C6.5981 14.5714 6.93194 14.7069 7.17808 14.948C7.42422 15.1891 7.5625 15.5162 7.5625 15.8571V19.7143H8.875V10.7143C8.875 10.3733 9.01328 10.0463 9.25942 9.80515C9.50556 9.56403 9.8394 9.42857 10.1875 9.42857H12.8125C13.1606 9.42857 13.4944 9.56403 13.7406 9.80515C13.9867 10.0463 14.125 10.3733 14.125 10.7143V19.7143H15.4375V4.28571ZM16.75 19.7143H19.375V4.28571H16.75V19.7143ZM12.8125 19.7143V10.7143H10.1875V19.7143H12.8125ZM6.25 19.7143V15.8571H3.625V19.7143H6.25Z"/>
</g>
</svg>
