<svg width="24" height="24" viewBox="0 0 24 24" fill="currentColor" xmlns="http://www.w3.org/2000/svg">
<path d="M20.6703 3.6937C18.4051 1.32932 15.2709 -0.00502793 11.9965 0.000996877C5.3794 -0.00733743 0.00834381 5.35017 9.49964e-06 11.9674C-0.00410745 15.2393 1.33009 18.3706 3.69271 20.6342C3.69959 20.641 3.70215 20.6513 3.70898 20.6573C3.77836 20.7242 3.85377 20.7807 3.92406 20.845C4.11686 21.0164 4.30965 21.1937 4.51274 21.3591C4.62154 21.4448 4.73465 21.5305 4.84606 21.6093C5.038 21.7524 5.22994 21.8955 5.43042 22.0275C5.56668 22.1132 5.7072 22.1988 5.84683 22.2845C6.03189 22.3959 6.21615 22.5082 6.40724 22.6101C6.5692 22.6958 6.73453 22.7695 6.89906 22.8475C7.079 22.9332 7.25638 23.0188 7.44059 23.0959C7.6248 23.173 7.80991 23.233 7.99668 23.2999C8.18345 23.3667 8.34456 23.4284 8.52365 23.4832C8.72588 23.5441 8.93323 23.5912 9.13888 23.6417C9.31024 23.6837 9.47647 23.7317 9.653 23.766C9.88947 23.8131 10.1294 23.8431 10.3693 23.8757C10.5176 23.8963 10.6624 23.9254 10.8123 23.9399C11.2048 23.9785 11.6006 23.9999 11.9999 23.9999C12.3992 23.9999 12.7951 23.9785 13.1875 23.9399C13.3375 23.9254 13.4823 23.8963 13.6305 23.8757C13.8704 23.8431 14.1103 23.8131 14.3468 23.766C14.5182 23.7317 14.6896 23.6803 14.8609 23.6417C15.0666 23.5912 15.2739 23.544 15.4762 23.4832C15.6553 23.4284 15.8283 23.3616 16.0031 23.2999C16.178 23.2382 16.3767 23.1713 16.5592 23.0959C16.7417 23.0205 16.9208 22.9322 17.1008 22.8475C17.2653 22.7695 17.4307 22.6958 17.5926 22.6101C17.7837 22.5082 17.9679 22.3959 18.153 22.2845C18.2927 22.1988 18.4332 22.1209 18.5694 22.0275C18.7699 21.8955 18.9619 21.7524 19.1538 21.6093C19.2652 21.5236 19.3782 21.4465 19.4871 21.3591C19.6902 21.1963 19.883 21.0232 20.0758 20.845C20.146 20.7807 20.2214 20.7242 20.2908 20.6573C20.2977 20.6514 20.3003 20.6411 20.3071 20.6342C25.0855 16.0564 25.248 8.47192 20.6703 3.6937ZM18.7444 19.737C18.5884 19.8742 18.4273 20.0044 18.2645 20.1304C18.1686 20.2041 18.0726 20.2769 17.9741 20.3472C17.819 20.4594 17.6613 20.5657 17.5011 20.6676C17.3845 20.7422 17.2654 20.8141 17.1454 20.8844C16.9946 20.9701 16.8412 21.0558 16.6862 21.1415C16.549 21.2117 16.4094 21.2777 16.2689 21.3429C16.1284 21.408 15.9733 21.4774 15.8216 21.5382C15.6699 21.5991 15.5089 21.6564 15.3503 21.7096C15.2055 21.7593 15.0607 21.8107 14.9142 21.8544C14.7428 21.9058 14.5637 21.9477 14.3863 21.9906C14.2475 22.0232 14.1104 22.06 13.9699 22.0875C13.7668 22.1269 13.5595 22.1543 13.3513 22.1826C13.233 22.198 13.1157 22.2194 12.9965 22.2314C12.6675 22.2631 12.3341 22.282 11.9974 22.282C11.6607 22.282 11.3273 22.2631 10.9983 22.2314C10.8792 22.2194 10.7618 22.198 10.6435 22.1826C10.4353 22.1543 10.228 22.1269 10.0249 22.0875C9.88435 22.0601 9.74724 22.0232 9.60847 21.9906C9.43108 21.9478 9.25456 21.9049 9.08064 21.8544C8.93414 21.8107 8.78929 21.7593 8.6445 21.7096C8.48599 21.6547 8.32744 21.599 8.17321 21.5382C8.01897 21.4774 7.87332 21.4105 7.72591 21.3429C7.57851 21.2752 7.44571 21.2118 7.30865 21.1415C7.15356 21.0609 7.00018 20.9761 6.84936 20.8844C6.72941 20.8142 6.61027 20.7422 6.49374 20.6676C6.33353 20.5657 6.17583 20.4594 6.02075 20.3472C5.92219 20.2769 5.82624 20.2041 5.73025 20.1304C5.56743 20.0044 5.40637 19.8733 5.25042 19.737C5.21272 19.7088 5.17843 19.6728 5.14163 19.6402C5.17993 16.7253 7.05249 14.1516 9.81411 13.218C11.1949 13.8749 12.7981 13.8749 14.179 13.218C16.9405 14.1516 18.8131 16.7253 18.8515 19.6402C18.8155 19.6728 18.7812 19.7054 18.7444 19.737ZM9.00859 6.87118C9.93636 5.22119 12.026 4.63573 13.676 5.5635C15.326 6.49127 15.9115 8.58092 14.9837 10.2309C14.6759 10.7784 14.2235 11.2307 13.676 11.5386C13.6717 11.5386 13.6666 11.5386 13.6614 11.5437C13.4342 11.6702 13.1941 11.7719 12.9451 11.8471C12.9006 11.8599 12.8594 11.877 12.8123 11.8882C12.7266 11.9105 12.6366 11.9259 12.5484 11.9413C12.3822 11.9704 12.214 11.9872 12.0454 11.9919H11.9477C11.7791 11.9872 11.6109 11.9704 11.4447 11.9413C11.359 11.9259 11.2682 11.9105 11.1808 11.8882C11.1354 11.877 11.0951 11.8599 11.048 11.8471C10.7991 11.7719 10.5589 11.6702 10.3317 11.5437L10.3163 11.5386C8.66629 10.6108 8.08083 8.52117 9.00859 6.87118ZM20.3715 17.9411C19.8217 15.3764 18.1328 13.2021 15.7839 12.0348C17.704 9.94313 17.565 6.69089 15.4733 4.77073C13.3816 2.85058 10.1294 2.98965 8.20925 5.08131C6.40412 7.04771 6.40412 10.0684 8.20925 12.0348C5.86033 13.2021 4.17148 15.3764 3.62162 17.9411C0.335892 13.3129 1.42417 6.89739 6.05238 3.61166C10.6806 0.325935 17.0961 1.41421 20.3818 6.04242C21.617 7.78223 22.28 9.86335 22.2789 11.997C22.2789 14.1289 21.612 16.2073 20.3715 17.9411Z" />
</svg>
