<svg width="22" height="22" viewBox="0 0 22 22" fill="none" xmlns="http://www.w3.org/2000/svg">
<path d="M4.75062 0.0927734L4.83031 1.11793L4.0475 1.7859L5.05062 2.02824L5.44437 2.97746L5.98344 2.10184L7.00531 2.0198L6.33969 1.23652L6.57875 0.237148L5.62719 0.628555L4.75062 0.0927734ZM20.7491 0.499648C20.5501 0.499648 20.3594 0.578666 20.2187 0.719318C20.0781 0.859971 19.9991 1.05074 19.9991 1.24965C19.9991 1.44856 20.0781 1.63933 20.2187 1.77998C20.3594 1.92063 20.5501 1.99965 20.7491 1.99965C20.948 1.99965 21.1387 1.92063 21.2794 1.77998C21.42 1.63933 21.4991 1.44856 21.4991 1.24965C21.4991 1.05074 21.42 0.859971 21.2794 0.719318C21.1387 0.578666 20.948 0.499648 20.7491 0.499648ZM10.2397 0.991836C10.0408 0.991836 9.85001 1.07085 9.70936 1.21151C9.5687 1.35216 9.48969 1.54292 9.48969 1.74184C9.48969 1.94075 9.5687 2.13151 9.70936 2.27217C9.85001 2.41282 10.0408 2.49184 10.2397 2.49184C10.4386 2.49184 10.6294 2.41282 10.77 2.27217C10.9107 2.13151 10.9897 1.94075 10.9897 1.74184C10.9897 1.54292 10.9107 1.35216 10.77 1.21151C10.6294 1.07085 10.4386 0.991836 10.2397 0.991836ZM18.86 1.31246C18.4287 1.39402 18.0303 1.64902 17.6459 1.98184C17.2897 2.28793 16.9569 2.66902 16.6756 3.08105C15.7944 3.22215 14.9131 3.58121 14.3225 4.07152C13.5678 4.69027 12.8975 5.74965 12.5319 6.84184C12.185 6.98715 11.8569 7.16059 11.5897 7.34809C10.8631 7.85902 10.4881 8.83871 10.2116 9.69184C9.935 10.5496 9.79906 11.2996 9.79906 11.2996L10.6334 11.4496C10.6334 11.4496 10.76 10.7465 11.0131 9.95434C11.2709 9.16215 11.7069 8.29965 12.0772 8.04184C12.1381 7.99965 12.2178 7.95277 12.2881 7.91059C12.26 8.17777 12.26 8.44496 12.3022 8.69809C12.3866 9.23246 12.6772 9.7434 13.1928 10.02C13.5584 10.2168 13.9709 10.17 14.3178 10.0293C14.6647 9.88402 14.9741 9.64496 15.2412 9.36371C15.5084 9.08246 15.7288 8.74965 15.86 8.39809C15.9913 8.04652 16.0381 7.64809 15.8694 7.27777H15.8647C15.6819 6.88402 15.3303 6.6309 14.9553 6.52309C14.5803 6.41527 14.1772 6.41996 13.7741 6.4809C13.7037 6.49027 13.6381 6.51371 13.5678 6.52777C13.9147 5.78715 14.4116 5.08871 14.8569 4.7184C15.1475 4.47934 15.635 4.24965 16.1553 4.0809C16.0897 4.25902 16.0381 4.43715 16.0147 4.61996C15.9397 5.11215 16.0475 5.64652 16.4412 6.01215C16.7272 6.27465 17.1116 6.31684 17.4491 6.26059C17.7819 6.20434 18.1053 6.05434 18.3959 5.86215C18.6866 5.66527 18.9444 5.42152 19.1272 5.13559C19.31 4.84965 19.4319 4.48402 19.3147 4.1184V4.11371C19.16 3.64168 18.7756 3.31731 18.3491 3.16356C18.1662 3.09793 17.9741 3.0609 17.7772 3.03887C17.9131 2.88605 18.0537 2.74309 18.1944 2.62074C18.5131 2.34699 18.8366 2.17543 19.0194 2.14121L18.86 1.31246ZM7.19281 2.95543L6.48031 3.40355L8.0975 5.9934L5.45375 6.12934L6.69594 8.83871L7.46469 8.48246L6.73812 6.90746L9.57875 6.76215L7.19281 2.95543ZM17.3366 3.86059C17.6225 3.8559 17.8756 3.88871 18.0631 3.95902C18.3162 4.04809 18.4428 4.16059 18.5084 4.37152C18.5272 4.42309 18.5178 4.52621 18.4194 4.6809C18.3162 4.84027 18.1334 5.0184 17.9272 5.15902C17.7162 5.29965 17.4819 5.39809 17.3084 5.42621C17.1303 5.45902 17.0506 5.42621 17.0131 5.3934C16.8491 5.2434 16.8022 5.0559 16.8491 4.74184C16.8866 4.48871 17.0037 4.18402 17.1772 3.86996C17.2334 3.86996 17.285 3.86059 17.3366 3.86059ZM3.45172 4.76527C3.25281 4.76527 3.06204 4.84429 2.92139 4.98494C2.78074 5.1256 2.70172 5.31636 2.70172 5.51527C2.70172 5.71419 2.78074 5.90495 2.92139 6.0456C3.06204 6.18626 3.25281 6.26527 3.45172 6.26527C3.55025 6.26534 3.64783 6.24598 3.73888 6.20832C3.82992 6.17065 3.91266 6.11542 3.98235 6.04577C4.05205 5.97612 4.10733 5.89342 4.14505 5.80239C4.18277 5.71137 4.20219 5.6138 4.20219 5.51527C4.20219 5.41674 4.18277 5.31918 4.14505 5.22815C4.10733 5.13713 4.05205 5.05443 3.98235 4.98478C3.91266 4.91513 3.82992 4.85989 3.73888 4.82223C3.64783 4.78457 3.55025 4.76521 3.45172 4.76527ZM20.1444 6.50902L19.4694 7.28715L18.4475 7.20277L18.9819 8.08402L18.5834 9.0309L19.5866 8.79652L20.3647 9.46684L20.4537 8.44027L21.3303 7.9059L20.3834 7.50746L20.1444 6.50902ZM14.3553 7.28246C14.4913 7.28715 14.6178 7.3059 14.7162 7.33402C14.9178 7.39027 15.0256 7.47465 15.1006 7.63402C15.1428 7.72309 15.1475 7.88715 15.0678 8.10277C14.9881 8.32309 14.8241 8.57621 14.6272 8.78715C14.4303 8.99809 14.1912 9.16684 13.9944 9.24652C13.7975 9.32621 13.6756 9.32152 13.5959 9.27934H13.5912C13.3194 9.12934 13.1881 8.91371 13.1366 8.56684C13.0897 8.27152 13.1225 7.89652 13.2209 7.4934C13.4506 7.41371 13.6803 7.34809 13.9006 7.31527C14.0647 7.29184 14.2147 7.28246 14.3553 7.28246ZM4.86781 9.71527C4.53031 9.7059 4.31937 9.78559 4.18812 9.91684C4.05687 10.0481 3.97719 10.259 3.98656 10.5965C3.99594 10.9387 4.10844 11.3887 4.32406 11.8903C4.75531 12.8981 5.60375 14.1121 6.74281 15.2559C7.88187 16.395 9.10062 17.2387 10.1084 17.67C10.6053 17.8856 11.0553 17.9981 11.3975 18.0075C11.7397 18.0215 11.9459 17.9372 12.0772 17.8059C12.2084 17.6747 12.2928 17.4684 12.2787 17.1262C12.2694 16.784 12.1569 16.334 11.9412 15.8325C11.51 14.8293 10.6662 13.6106 9.52719 12.4715C8.38812 11.3278 7.16937 10.484 6.16156 10.0528C5.66 9.83715 5.21 9.72465 4.86781 9.71527ZM15.7428 11.1825L14.1959 13.7137L12.8319 12.4059L12.2506 13.0153L14.3647 15.045L15.9491 12.4575L17.7631 13.9715L21.9491 12.1809L21.6209 11.4028L17.9037 12.9965L15.7428 11.1825ZM3.37859 11.7778L2.55172 14.4918C4.49281 16.7934 6.75687 18.0872 9.21312 18.9309L10.2256 18.6215C10.0803 18.57 9.92562 18.509 9.77094 18.4434C8.62719 17.9559 7.3475 17.0559 6.1475 15.8512C4.94281 14.6465 4.04281 13.3668 3.55344 12.2231C3.48734 12.0731 3.42922 11.9231 3.37859 11.7778ZM2.26203 15.4434L1.60531 17.5996C2.95953 18.8653 4.37094 19.4371 5.85219 19.9528L7.88656 19.334C5.86156 18.509 3.94906 17.3043 2.26203 15.4434ZM16.2491 15.4996C16.0501 15.4996 15.8594 15.5787 15.7187 15.7193C15.5781 15.86 15.4991 16.0507 15.4991 16.2496C15.4991 16.4486 15.5781 16.6393 15.7187 16.78C15.8594 16.9206 16.0501 16.9996 16.2491 16.9996C16.448 16.9996 16.6387 16.9206 16.7794 16.78C16.92 16.6393 16.9991 16.4486 16.9991 16.2496C16.9991 16.0507 16.92 15.86 16.7794 15.7193C16.6387 15.5787 16.448 15.4996 16.2491 15.4996ZM1.33391 18.495L0.382812 21.6168L4.52094 20.3559C3.45359 19.9293 2.375 19.3856 1.33391 18.495Z" fill="#1D6BF3"/>
</svg>
