<svg width="24" height="24" viewBox="0 0 24 24" fill="currentColor" xmlns="http://www.w3.org/2000/svg">
<path d="M14.091 3.70048C13.4669 3.30049 12.7412 3.08789 12 3.08789C11.2588 3.08789 10.5331 3.30049 9.909 3.70048L1.845 8.87048C1.73968 8.93809 1.65296 9.03099 1.59274 9.14071C1.53251 9.25042 1.50071 9.37346 1.50021 9.49862C1.49971 9.62377 1.53054 9.74706 1.58989 9.85725C1.64924 9.96744 1.73522 10.061 1.84 10.1295L5 12.1945V17.7515C5 17.9138 5.05263 18.0717 5.15 18.2015L5.151 18.2025L5.152 18.2045L5.155 18.2085L5.164 18.2185C5.19891 18.2646 5.23561 18.3093 5.274 18.3525C5.37519 18.467 5.48129 18.5771 5.592 18.6825C5.869 18.9495 6.282 19.2965 6.842 19.6405C7.963 20.3305 9.661 21.0005 12 21.0005C14.339 21.0005 16.036 20.3305 17.159 19.6405C17.6084 19.3667 18.0274 19.0459 18.409 18.6835C18.519 18.5781 18.6245 18.468 18.725 18.3535C18.7681 18.305 18.8095 18.255 18.849 18.2035L18.85 18.2005C18.9474 18.0707 19 17.9128 19 17.7505V12.1925L21 10.8865V16.2505C21 16.4494 21.079 16.6402 21.2197 16.7808C21.3603 16.9215 21.5511 17.0005 21.75 17.0005C21.9489 17.0005 22.1397 16.9215 22.2803 16.7808C22.421 16.6402 22.5 16.4494 22.5 16.2505V9.50048C22.5001 9.37208 22.4672 9.2458 22.4046 9.13374C22.3419 9.02168 22.2515 8.92759 22.142 8.86048L14.092 3.70048H14.091ZM9.881 15.3825C10.5111 15.794 11.2474 16.0132 12 16.0132C12.7526 16.0132 13.4889 15.794 14.119 15.3825L17.5 13.1745V17.4705C17.1619 17.8127 16.7835 18.1126 16.373 18.3635C15.464 18.9205 14.036 19.5005 12 19.5005C9.964 19.5005 8.536 18.9205 7.627 18.3615C7.21659 18.1109 6.83814 17.8114 6.5 17.4695V13.1735L9.88 15.3815L9.881 15.3825ZM10.718 4.96348C11.499 4.46348 12.501 4.46348 13.282 4.96348L20.37 9.50748L13.299 14.1275C12.509 14.6425 11.49 14.6425 10.701 14.1275L3.631 9.50748L10.718 4.96348Z"/>
</svg>
